<svg width="44" height="8" viewBox="0 0 44 8" fill="none" xmlns="http://www.w3.org/2000/svg">
<path d="M3.34999 7.01994C2.68999 7.01994 2.11999 6.86994 1.63999 6.56994C1.15999 6.26327 0.789995 5.85327 0.529995 5.33994C0.276661 4.82661 0.149995 4.25661 0.149995 3.62994C0.149995 3.00327 0.276661 2.43327 0.529995 1.91994C0.789995 1.40661 1.15999 0.999941 1.63999 0.699941C2.11999 0.393275 2.68999 0.239941 3.34999 0.239941C3.84999 0.239941 4.29999 0.329941 4.69999 0.509941C5.09999 0.683274 5.43999 0.923274 5.71999 1.22994C5.99999 1.53661 6.20999 1.89327 6.34999 2.29994H5.55999C5.39333 1.89327 5.12999 1.56994 4.76999 1.32994C4.40999 1.08994 3.95666 0.969941 3.40999 0.969941C2.87666 0.969941 2.41999 1.08994 2.03999 1.32994C1.66666 1.56327 1.38333 1.87994 1.18999 2.27994C0.996661 2.67994 0.899995 3.12994 0.899995 3.62994C0.899995 4.12327 0.996661 4.57327 1.18999 4.97994C1.38333 5.37994 1.66666 5.69994 2.03999 5.93994C2.41999 6.17327 2.87666 6.28994 3.40999 6.28994C3.95666 6.28994 4.40999 6.16994 4.76999 5.92994C5.12999 5.68994 5.39333 5.36661 5.55999 4.95994H6.34999C6.20999 5.35994 5.99999 5.71661 5.71999 6.02994C5.43999 6.33661 5.09999 6.57994 4.69999 6.75994C4.29999 6.93327 3.84999 7.01994 3.34999 7.01994ZM9.26429 7.01994C8.92429 7.01994 8.60096 6.93994 8.29429 6.77994C7.98762 6.61327 7.73762 6.36994 7.54429 6.04994C7.35762 5.72327 7.26429 5.32327 7.26429 4.84994V1.93994H8.01429V4.82994C8.01429 5.28327 8.14429 5.64994 8.40429 5.92994C8.67096 6.20327 9.00762 6.33994 9.41429 6.33994C9.69429 6.33994 9.94762 6.27661 10.1743 6.14994C10.401 6.01661 10.581 5.83661 10.7143 5.60994C10.8543 5.38327 10.9243 5.11994 10.9243 4.81994V1.93994H11.6743V6.93994H10.9243V6.15994C10.7443 6.39994 10.5243 6.60327 10.2643 6.76994C10.0043 6.93661 9.67096 7.01994 9.26429 7.01994ZM14.7984 7.01994C14.3384 7.01994 13.9484 6.94327 13.6284 6.78994C13.315 6.63661 13.075 6.43661 12.9084 6.18994C12.7417 5.93661 12.6484 5.66327 12.6284 5.36994H13.4084C13.4284 5.53661 13.485 5.69994 13.5784 5.85994C13.6784 6.01327 13.8284 6.13994 14.0284 6.23994C14.2284 6.33327 14.4884 6.37994 14.8084 6.37994C14.9084 6.37994 15.0317 6.36994 15.1784 6.34994C15.325 6.32994 15.465 6.29327 15.5984 6.23994C15.7384 6.18661 15.855 6.10661 15.9484 5.99994C16.0417 5.89327 16.0884 5.75661 16.0884 5.58994C16.0884 5.38327 16.0084 5.22327 15.8484 5.10994C15.6884 4.99661 15.4817 4.90994 15.2284 4.84994C14.975 4.78327 14.705 4.71994 14.4184 4.65994C14.1384 4.59994 13.8717 4.52327 13.6184 4.42994C13.365 4.32994 13.1584 4.19327 12.9984 4.01994C12.8384 3.83994 12.7584 3.59661 12.7584 3.28994C12.7584 2.83661 12.9217 2.48661 13.2484 2.23994C13.5817 1.98661 14.0717 1.85994 14.7184 1.85994C15.1584 1.85994 15.515 1.92994 15.7884 2.06994C16.0684 2.20327 16.2784 2.37661 16.4184 2.58994C16.565 2.80327 16.6517 3.03327 16.6784 3.27994H15.9184C15.8917 3.06661 15.785 2.88327 15.5984 2.72994C15.4184 2.57661 15.1184 2.49994 14.6984 2.49994C13.905 2.49994 13.5084 2.73994 13.5084 3.21994C13.5084 3.41994 13.5884 3.57327 13.7484 3.67994C13.9084 3.78661 14.115 3.87327 14.3684 3.93994C14.6217 3.99994 14.8884 4.05994 15.1684 4.11994C15.455 4.17327 15.725 4.24994 15.9784 4.34994C16.2317 4.44994 16.4384 4.59327 16.5984 4.77994C16.7584 4.95994 16.8384 5.20661 16.8384 5.51994C16.8384 6.00661 16.6517 6.37994 16.2784 6.63994C15.9117 6.89327 15.4184 7.01994 14.7984 7.01994ZM18.3426 6.93994V2.59994H17.3226V1.93994H18.3426V0.149941H19.0926V1.93994H20.2426V2.59994H19.0926V6.93994H18.3426ZM23.1366 7.01994C22.63 7.01994 22.19 6.90661 21.8166 6.67994C21.4433 6.44661 21.1566 6.13327 20.9566 5.73994C20.7566 5.34661 20.6566 4.91327 20.6566 4.43994C20.6566 3.95994 20.7566 3.52661 20.9566 3.13994C21.1566 2.74661 21.4433 2.43661 21.8166 2.20994C22.19 1.97661 22.63 1.85994 23.1366 1.85994C23.65 1.85994 24.09 1.97661 24.4566 2.20994C24.83 2.43661 25.1166 2.74661 25.3166 3.13994C25.5166 3.52661 25.6166 3.95994 25.6166 4.43994C25.6166 4.91327 25.5166 5.34661 25.3166 5.73994C25.1166 6.13327 24.83 6.44661 24.4566 6.67994C24.09 6.90661 23.65 7.01994 23.1366 7.01994ZM23.1366 6.33994C23.51 6.33994 23.8233 6.25327 24.0766 6.07994C24.3366 5.90661 24.5333 5.67661 24.6666 5.38994C24.8 5.09661 24.8666 4.77994 24.8666 4.43994C24.8666 4.09327 24.8 3.77661 24.6666 3.48994C24.5333 3.20327 24.3366 2.97327 24.0766 2.79994C23.8233 2.62661 23.51 2.53994 23.1366 2.53994C22.77 2.53994 22.4566 2.62661 22.1966 2.79994C21.9366 2.97327 21.74 3.20327 21.6066 3.48994C21.4733 3.77661 21.4066 4.09327 21.4066 4.43994C21.4066 4.77994 21.4733 5.09661 21.6066 5.38994C21.74 5.67661 21.9366 5.90661 22.1966 6.07994C22.4566 6.25327 22.77 6.33994 23.1366 6.33994ZM26.6112 6.93994V1.93994H27.3612V2.69994C27.4745 2.49994 27.6545 2.30994 27.9012 2.12994C28.1478 1.94994 28.4745 1.85994 28.8812 1.85994C29.2145 1.85994 29.5212 1.94994 29.8012 2.12994C30.0878 2.30327 30.3112 2.54994 30.4712 2.86994C30.5378 2.75661 30.6412 2.61994 30.7812 2.45994C30.9278 2.29994 31.1178 2.15994 31.3512 2.03994C31.5845 1.91994 31.8645 1.85994 32.1912 1.85994C32.5112 1.85994 32.8112 1.94327 33.0912 2.10994C33.3712 2.27661 33.5978 2.51661 33.7712 2.82994C33.9512 3.13661 34.0412 3.49994 34.0412 3.91994V6.93994H33.2912V3.93994C33.2912 3.51994 33.1712 3.18327 32.9312 2.92994C32.6978 2.66994 32.4045 2.53994 32.0512 2.53994C31.6845 2.53994 31.3678 2.66327 31.1012 2.90994C30.8345 3.15661 30.7012 3.50327 30.7012 3.94994V6.93994H29.9512V3.93994C29.9512 3.51994 29.8312 3.18327 29.5912 2.92994C29.3578 2.66994 29.0645 2.53994 28.7112 2.53994C28.3445 2.53994 28.0278 2.66327 27.7612 2.90994C27.4945 3.15661 27.3612 3.50327 27.3612 3.94994V6.93994H26.6112ZM37.5128 7.01994C37.0061 7.01994 36.5628 6.90661 36.1828 6.67994C35.8028 6.44661 35.5061 6.13327 35.2928 5.73994C35.0861 5.34661 34.9828 4.91327 34.9828 4.43994C34.9828 3.95994 35.0828 3.52661 35.2828 3.13994C35.4828 2.74661 35.7695 2.43661 36.1428 2.20994C36.5161 1.97661 36.9561 1.85994 37.4628 1.85994C37.9761 1.85994 38.4161 1.97661 38.7828 2.20994C39.1561 2.43661 39.4428 2.74661 39.6428 3.13994C39.8428 3.52661 39.9428 3.95994 39.9428 4.43994V4.73994H35.7528C35.7928 5.03327 35.8861 5.30327 36.0328 5.54994C36.1861 5.78994 36.3895 5.98327 36.6428 6.12994C36.8961 6.26994 37.1895 6.33994 37.5228 6.33994C37.8761 6.33994 38.1728 6.26327 38.4128 6.10994C38.6528 5.94994 38.8395 5.74661 38.9728 5.49994H39.7928C39.6195 5.94661 39.3428 6.31327 38.9628 6.59994C38.5895 6.87994 38.1061 7.01994 37.5128 7.01994ZM35.7628 4.03994H39.1628C39.0961 3.61327 38.9161 3.25661 38.6228 2.96994C38.3295 2.68327 37.9428 2.53994 37.4628 2.53994C36.9828 2.53994 36.5961 2.68327 36.3028 2.96994C36.0161 3.25661 35.8361 3.61327 35.7628 4.03994ZM40.8592 6.93994V1.93994H41.6092V3.16994C41.6359 3.08327 41.6859 2.96994 41.7592 2.82994C41.8392 2.68327 41.9525 2.53661 42.0992 2.38994C42.2459 2.24327 42.4292 2.11994 42.6492 2.01994C42.8759 1.91327 43.1425 1.85994 43.4492 1.85994H43.4992V2.60994H43.4092C43.0359 2.60994 42.7125 2.71327 42.4392 2.91994C42.1725 3.11994 41.9659 3.38327 41.8192 3.70994C41.6792 4.02994 41.6092 4.37327 41.6092 4.73994V6.93994H40.8592Z" fill="black"/>
<path d="M1.63999 6.56994L1.55923 6.69635L1.56049 6.69714L1.63999 6.56994ZM0.529995 5.33994L0.395476 5.40633L0.39618 5.40772L0.529995 5.33994ZM0.529995 1.91994L0.396173 1.85216L0.395483 1.85356L0.529995 1.91994ZM1.63999 0.699941L1.7195 0.827147L1.72075 0.826346L1.63999 0.699941ZM4.69999 0.509941L4.63843 0.646743L4.64035 0.647575L4.69999 0.509941ZM6.34999 2.29994V2.44994H6.56027L6.49183 2.25111L6.34999 2.29994ZM5.55999 2.29994L5.4212 2.35682L5.45936 2.44994H5.55999V2.29994ZM4.76999 1.32994L4.8532 1.20513V1.20513L4.76999 1.32994ZM2.03999 1.32994L2.1195 1.45714L2.12009 1.45676L2.03999 1.32994ZM1.18999 2.27994L1.05494 2.21467L1.18999 2.27994ZM1.18999 4.97994L1.05452 5.04435L1.05494 5.04522L1.18999 4.97994ZM2.03999 5.93994L1.95886 6.06614L1.96151 6.06777L2.03999 5.93994ZM4.76999 5.92994L4.8532 6.05475V6.05475L4.76999 5.92994ZM5.55999 4.95994V4.80994H5.45936L5.4212 4.90306L5.55999 4.95994ZM6.34999 4.95994L6.49157 5.00949L6.56142 4.80994H6.34999V4.95994ZM5.71999 6.02994L5.83077 6.13109L5.83184 6.12989L5.71999 6.02994ZM4.69999 6.75994L4.75964 6.89759L4.76155 6.89673L4.69999 6.75994ZM3.34999 7.01994V6.86994C2.71336 6.86994 2.17193 6.72551 1.71949 6.44274L1.63999 6.56994L1.56049 6.69714C2.06806 7.01437 2.66663 7.16994 3.34999 7.16994V7.01994ZM1.63999 6.56994L1.72075 6.44354C1.26361 6.15147 0.911816 5.76182 0.663809 5.27216L0.529995 5.33994L0.39618 5.40772C0.668173 5.94473 1.05638 6.37508 1.55924 6.69635L1.63999 6.56994ZM0.529995 5.33994L0.664506 5.27356C0.422299 4.78277 0.299995 4.2358 0.299995 3.62994H0.149995H-5.48363e-06C-5.48363e-06 4.27741 0.131024 4.87045 0.395483 5.40632L0.529995 5.33994ZM0.149995 3.62994H0.299995C0.299995 3.02408 0.422299 2.47711 0.664506 1.98632L0.529995 1.91994L0.395483 1.85356C0.131024 2.38944 -5.48363e-06 2.98247 -5.48363e-06 3.62994H0.149995ZM0.529995 1.91994L0.663809 1.98772C0.911673 1.49835 1.26308 1.1124 1.71949 0.827141L1.63999 0.699941L1.56049 0.572742C1.05691 0.887481 0.668316 1.31487 0.39618 1.85216L0.529995 1.91994ZM1.63999 0.699941L1.72075 0.826346C2.173 0.537408 2.71397 0.389941 3.34999 0.389941V0.239941V0.0899413C2.66601 0.0899413 2.06699 0.249141 1.55924 0.573537L1.63999 0.699941ZM3.34999 0.239941V0.389941C3.83174 0.389941 4.26032 0.476578 4.63844 0.64673L4.69999 0.509941L4.76155 0.373153C4.33966 0.183305 3.86825 0.0899413 3.34999 0.0899413V0.239941ZM4.69999 0.509941L4.64035 0.647575C5.02191 0.812917 5.34421 1.04083 5.60922 1.33108L5.71999 1.22994L5.83077 1.1288C5.53578 0.805721 5.17808 0.553632 4.75964 0.372308L4.69999 0.509941ZM5.71999 1.22994L5.60922 1.33108C5.87491 1.62207 6.07459 1.96077 6.20816 2.34877L6.34999 2.29994L6.49183 2.25111C6.3454 1.82578 6.12508 1.45114 5.83077 1.1288L5.71999 1.22994ZM6.34999 2.29994V2.14994H5.55999V2.29994V2.44994H6.34999V2.29994ZM5.55999 2.29994L5.69879 2.24306C5.52097 1.80918 5.2385 1.462 4.8532 1.20513L4.76999 1.32994L4.68679 1.45475C5.02149 1.67788 5.26568 1.97737 5.4212 2.35682L5.55999 2.29994ZM4.76999 1.32994L4.8532 1.20513C4.46279 0.944862 3.97849 0.819941 3.40999 0.819941V0.969941V1.11994C3.93484 1.11994 4.3572 1.23502 4.68679 1.45475L4.76999 1.32994ZM3.40999 0.969941V0.819941C2.85367 0.819941 2.36803 0.945349 1.9599 1.20312L2.03999 1.32994L2.12009 1.45676C2.47196 1.23453 2.89965 1.11994 3.40999 1.11994V0.969941ZM2.03999 1.32994L1.96049 1.20274C1.56294 1.45121 1.26047 1.78945 1.05494 2.21467L1.18999 2.27994L1.32505 2.34522C1.50619 1.97044 1.77038 1.67534 2.11949 1.45714L2.03999 1.32994ZM1.18999 2.27994L1.05494 2.21467C0.8506 2.63744 0.749995 3.11019 0.749995 3.62994H0.899995H1.04999C1.04999 3.14969 1.14272 2.72244 1.32505 2.34522L1.18999 2.27994ZM0.899995 3.62994H0.749995C0.749995 4.1434 0.850739 4.61569 1.05452 5.04434L1.18999 4.97994L1.32546 4.91554C1.14258 4.53086 1.04999 4.10315 1.04999 3.62994H0.899995ZM1.18999 4.97994L1.05494 5.04522C1.26029 5.47007 1.56228 5.81116 1.95888 6.06612L2.03999 5.93994L2.12111 5.81376C1.77105 5.58872 1.50637 5.28981 1.32505 4.91467L1.18999 4.97994ZM2.03999 5.93994L1.96151 6.06777C2.36938 6.31822 2.85443 6.43994 3.40999 6.43994V6.28994V6.13994C2.8989 6.13994 2.47061 6.02833 2.11848 5.81212L2.03999 5.93994ZM3.40999 6.28994V6.43994C3.97849 6.43994 4.46279 6.31502 4.8532 6.05475L4.76999 5.92994L4.68679 5.80513C4.3572 6.02486 3.93484 6.13994 3.40999 6.13994V6.28994ZM4.76999 5.92994L4.8532 6.05475C5.2385 5.79788 5.52097 5.4507 5.69879 5.01682L5.55999 4.95994L5.4212 4.90306C5.26568 5.28251 5.02149 5.582 4.68679 5.80513L4.76999 5.92994ZM5.55999 4.95994V5.10994H6.34999V4.95994V4.80994H5.55999V4.95994ZM6.34999 4.95994L6.20842 4.91039C6.07486 5.29196 5.87491 5.63147 5.60815 5.92999L5.71999 6.02994L5.83184 6.12989C6.12508 5.80174 6.34512 5.42792 6.49157 5.00949L6.34999 4.95994ZM5.71999 6.02994L5.60922 5.9288C5.34379 6.21951 5.02084 6.45107 4.63844 6.62315L4.69999 6.75994L4.76155 6.89673C5.17915 6.70881 5.5362 6.45371 5.83077 6.13108L5.71999 6.02994ZM4.69999 6.75994L4.64035 6.62231C4.26175 6.78637 3.83248 6.86994 3.34999 6.86994V7.01994V7.16994C3.86751 7.16994 4.33824 7.08018 4.75964 6.89757L4.69999 6.75994ZM8.29429 6.77994L8.22265 6.91175L8.22491 6.91293L8.29429 6.77994ZM7.54429 6.04994L7.41402 6.12438L7.4159 6.12751L7.54429 6.04994ZM7.26429 1.93994V1.78994H7.11429V1.93994H7.26429ZM8.01429 1.93994H8.16429V1.78994H8.01429V1.93994ZM8.40429 5.92994L8.29434 6.03204L8.29692 6.03469L8.40429 5.92994ZM10.1743 6.14994L10.2475 6.28091L10.2503 6.27923L10.1743 6.14994ZM10.7143 5.60994L10.5866 5.5311L10.585 5.53389L10.7143 5.60994ZM10.9243 1.93994V1.78994H10.7743V1.93994H10.9243ZM11.6743 1.93994H11.8243V1.78994H11.6743V1.93994ZM11.6743 6.93994V7.08994H11.8243V6.93994H11.6743ZM10.9243 6.93994H10.7743V7.08994H10.9243V6.93994ZM10.9243 6.15994H11.0743V5.70994L10.8043 6.06994L10.9243 6.15994ZM10.2643 6.76994L10.3452 6.89622L10.2643 6.76994ZM9.26429 7.01994V6.86994C8.94888 6.86994 8.64931 6.79598 8.36368 6.64695L8.29429 6.77994L8.22491 6.91293C8.55261 7.0839 8.8997 7.16994 9.26429 7.16994V7.01994ZM8.29429 6.77994L8.36592 6.64815C8.08432 6.4951 7.85326 6.27126 7.67268 5.97237L7.54429 6.04994L7.4159 6.12751C7.62199 6.46862 7.89093 6.73145 8.22266 6.91174L8.29429 6.77994ZM7.54429 6.04994L7.67453 5.97552C7.50375 5.67666 7.41429 5.30381 7.41429 4.84994H7.26429H7.11429C7.11429 5.34274 7.2115 5.76989 7.41405 6.12436L7.54429 6.04994ZM7.26429 4.84994H7.41429V1.93994H7.26429H7.11429V4.84994H7.26429ZM7.26429 1.93994V2.08994H8.01429V1.93994V1.78994H7.26429V1.93994ZM8.01429 1.93994H7.86429V4.82994H8.01429H8.16429V1.93994H8.01429ZM8.01429 4.82994H7.86429C7.86429 5.31364 8.00393 5.71922 8.29437 6.03201L8.40429 5.92994L8.51421 5.82787C8.28466 5.58066 8.16429 5.25291 8.16429 4.82994H8.01429ZM8.40429 5.92994L8.29692 6.03469C8.5938 6.33898 8.97012 6.48994 9.41429 6.48994V6.33994V6.18994C9.04513 6.18994 8.74812 6.06756 8.51166 5.82519L8.40429 5.92994ZM9.41429 6.33994V6.48994C9.71784 6.48994 9.9967 6.42102 10.2475 6.28088L10.1743 6.14994L10.1011 6.019C9.89855 6.1322 9.67074 6.18994 9.41429 6.18994V6.33994ZM10.1743 6.14994L10.2503 6.27923C10.499 6.13297 10.6973 5.93464 10.8436 5.68599L10.7143 5.60994L10.585 5.53389C10.4646 5.73857 10.3029 5.90025 10.0982 6.02065L10.1743 6.14994ZM10.7143 5.60994L10.8419 5.68877C10.9983 5.43552 11.0743 5.14418 11.0743 4.81994H10.9243H10.7743C10.7743 5.0957 10.7103 5.33103 10.5867 5.53112L10.7143 5.60994ZM10.9243 4.81994H11.0743V1.93994H10.9243H10.7743V4.81994H10.9243ZM10.9243 1.93994V2.08994H11.6743V1.93994V1.78994H10.9243V1.93994ZM11.6743 1.93994H11.5243V6.93994H11.6743H11.8243V1.93994H11.6743ZM11.6743 6.93994V6.78994H10.9243V6.93994V7.08994H11.6743V6.93994ZM10.9243 6.93994H11.0743V6.15994H10.9243H10.7743V6.93994H10.9243ZM10.9243 6.15994L10.8043 6.06994C10.6354 6.29519 10.4287 6.48637 10.1833 6.64366L10.2643 6.76994L10.3452 6.89622C10.6199 6.72018 10.8532 6.50469 11.0443 6.24994L10.9243 6.15994ZM10.2643 6.76994L10.1833 6.64366C9.95404 6.79065 9.65117 6.86994 9.26429 6.86994V7.01994V7.16994C9.69074 7.16994 10.0545 7.08257 10.3452 6.89622L10.2643 6.76994ZM13.6284 6.78994L13.5624 6.92468L13.5635 6.92521L13.6284 6.78994ZM12.9084 6.18994L12.783 6.27239L12.7841 6.27392L12.9084 6.18994ZM12.6284 5.36994V5.21994H12.4678L12.4787 5.38015L12.6284 5.36994ZM13.4084 5.36994L13.5573 5.35207L13.5414 5.21994H13.4084V5.36994ZM13.5784 5.85994L13.4486 5.93562L13.4527 5.94188L13.5784 5.85994ZM14.0284 6.23994L13.9612 6.37415L13.9649 6.37587L14.0284 6.23994ZM15.1784 6.34994L15.1986 6.49857L15.1784 6.34994ZM15.5984 6.23994L15.5449 6.09975L15.5426 6.10067L15.5984 6.23994ZM15.8484 5.10994L15.9351 4.98754V4.98754L15.8484 5.10994ZM15.2284 4.84994L15.1902 4.99505L15.1938 4.9959L15.2284 4.84994ZM14.4184 4.65994L14.3869 4.80661L14.3876 4.80676L14.4184 4.65994ZM13.6184 4.42994L13.5633 4.5695L13.5665 4.57069L13.6184 4.42994ZM12.9984 4.01994L12.8862 4.11961L12.8881 4.12168L12.9984 4.01994ZM13.2484 2.23994L13.3387 2.35965L13.3391 2.35937L13.2484 2.23994ZM15.7884 2.06994L15.7199 2.2035L15.7239 2.20537L15.7884 2.06994ZM16.4184 2.58994L16.2929 2.67226L16.2947 2.67492L16.4184 2.58994ZM16.6784 3.27994V3.42994H16.8454L16.8275 3.26382L16.6784 3.27994ZM15.9184 3.27994L15.7695 3.29855L15.7859 3.42994H15.9184V3.27994ZM15.5984 2.72994L15.5011 2.84415L15.5031 2.84585L15.5984 2.72994ZM13.7484 3.67994L13.6651 3.80475V3.80475L13.7484 3.67994ZM14.3684 3.93994L14.3302 4.08505L14.3338 4.0859L14.3684 3.93994ZM15.1684 4.11994L15.1369 4.26667L15.1409 4.26741L15.1684 4.11994ZM15.9784 4.34994L15.9233 4.48946V4.48946L15.9784 4.34994ZM16.5984 4.77994L16.4844 4.87758L16.4862 4.8796L16.5984 4.77994ZM16.2784 6.63994L16.3636 6.76335L16.3641 6.76303L16.2784 6.63994ZM14.7984 7.01994V6.86994C14.3544 6.86994 13.9879 6.79588 13.6932 6.65467L13.6284 6.78994L13.5635 6.92521C13.9088 7.09067 14.3223 7.16994 14.7984 7.16994V7.01994ZM13.6284 6.78994L13.6943 6.65521C13.4004 6.51141 13.1823 6.32743 13.0326 6.10596L12.9084 6.18994L12.7841 6.27392C12.9678 6.54579 13.2296 6.76181 13.5624 6.92467L13.6284 6.78994ZM12.9084 6.18994L13.0337 6.1075C12.8807 5.87504 12.7962 5.62647 12.778 5.35974L12.6284 5.36994L12.4787 5.38015C12.5005 5.70008 12.6026 5.99818 12.783 6.27238L12.9084 6.18994ZM12.6284 5.36994V5.51994H13.4084V5.36994V5.21994H12.6284V5.36994ZM13.4084 5.36994L13.2594 5.38781C13.2821 5.57685 13.3462 5.75965 13.4488 5.93552L13.5784 5.85994L13.7079 5.78436C13.6238 5.64023 13.5746 5.49636 13.5573 5.35207L13.4084 5.36994ZM13.5784 5.85994L13.4527 5.94188C13.5702 6.12196 13.7427 6.26483 13.9613 6.37411L14.0284 6.23994L14.0954 6.10578C13.914 6.01505 13.7866 5.90459 13.704 5.778L13.5784 5.85994ZM14.0284 6.23994L13.9649 6.37587C14.1916 6.48167 14.4755 6.52994 14.8084 6.52994V6.37994V6.22994C14.5012 6.22994 14.2651 6.18488 14.0918 6.10401L14.0284 6.23994ZM14.8084 6.37994V6.52994C14.9175 6.52994 15.0481 6.51909 15.1986 6.49857L15.1784 6.34994L15.1581 6.20132C15.0153 6.22079 14.8992 6.22994 14.8084 6.22994V6.37994ZM15.1784 6.34994L15.1986 6.49857C15.3571 6.47696 15.509 6.43724 15.6541 6.37921L15.5984 6.23994L15.5426 6.10067C15.421 6.14931 15.293 6.18292 15.1581 6.20132L15.1784 6.34994ZM15.5984 6.23994L15.6518 6.38011C15.8133 6.31856 15.9508 6.22489 16.0612 6.09872L15.9484 5.99994L15.8355 5.90117C15.7592 5.98832 15.6634 6.05465 15.545 6.09977L15.5984 6.23994ZM15.9484 5.99994L16.0612 6.09872C16.1826 5.96002 16.2384 5.78619 16.2384 5.58994H16.0884H15.9384C15.9384 5.72702 15.9008 5.82653 15.8355 5.90117L15.9484 5.99994ZM16.0884 5.58994H16.2384C16.2384 5.33773 16.1372 5.13074 15.9351 4.98754L15.8484 5.10994L15.7617 5.23235C15.8795 5.31581 15.9384 5.42882 15.9384 5.58994H16.0884ZM15.8484 5.10994L15.9351 4.98754C15.7551 4.86009 15.5292 4.76704 15.2629 4.70398L15.2284 4.84994L15.1938 4.9959C15.4342 5.05284 15.6216 5.13313 15.7617 5.23235L15.8484 5.10994ZM15.2284 4.84994L15.2665 4.70488C15.0105 4.63749 14.738 4.57359 14.4491 4.51312L14.4184 4.65994L14.3876 4.80676C14.6721 4.8663 14.9396 4.92906 15.1902 4.995L15.2284 4.84994ZM14.4184 4.65994L14.4498 4.51327C14.1763 4.45467 13.9165 4.37993 13.6702 4.28919L13.6184 4.42994L13.5665 4.57069C13.8269 4.66662 14.1004 4.74521 14.3869 4.80661L14.4184 4.65994ZM13.6184 4.42994L13.6734 4.29042C13.4378 4.19742 13.2511 4.07257 13.1086 3.9182L12.9984 4.01994L12.8881 4.12168C13.0656 4.31398 13.2922 4.46246 13.5633 4.56946L13.6184 4.42994ZM12.9984 4.01994L13.1105 3.92029C12.981 3.77461 12.9084 3.57023 12.9084 3.28994H12.7584H12.6084C12.6084 3.62299 12.6957 3.90527 12.8862 4.1196L12.9984 4.01994ZM12.7584 3.28994H12.9084C12.9084 2.87783 13.054 2.57464 13.3387 2.35965L13.2484 2.23994L13.158 2.12023C12.7893 2.39858 12.6084 2.79538 12.6084 3.28994H12.7584ZM13.2484 2.23994L13.3391 2.35937C13.6356 2.13407 14.0877 2.00994 14.7184 2.00994V1.85994V1.70994C14.0557 1.70994 13.5278 1.83915 13.1576 2.12052L13.2484 2.23994ZM14.7184 1.85994V2.00994C15.1442 2.00994 15.475 2.07795 15.72 2.20345L15.7884 2.06994L15.8567 1.93643C15.5551 1.78193 15.1725 1.70994 14.7184 1.70994V1.85994ZM15.7884 2.06994L15.7239 2.20537C15.9844 2.32945 16.171 2.48635 16.2929 2.67224L16.4184 2.58994L16.5438 2.50764C16.3858 2.26687 16.1523 2.0771 15.8528 1.93451L15.7884 2.06994ZM16.4184 2.58994L16.2947 2.67492C16.428 2.86869 16.5053 3.0752 16.5292 3.29606L16.6784 3.27994L16.8275 3.26382C16.798 2.99135 16.7021 2.73786 16.542 2.50496L16.4184 2.58994ZM16.6784 3.27994V3.12994H15.9184V3.27994V3.42994H16.6784V3.27994ZM15.9184 3.27994L16.0672 3.26134C16.0352 3.00509 15.9059 2.78848 15.6936 2.61403L15.5984 2.72994L15.5031 2.84585C15.6641 2.97807 15.7482 3.12813 15.7695 3.29855L15.9184 3.27994ZM15.5984 2.72994L15.6956 2.61575C15.4742 2.42712 15.1291 2.34994 14.6984 2.34994V2.49994V2.64994C15.1076 2.64994 15.3625 2.72609 15.5011 2.84413L15.5984 2.72994ZM14.6984 2.49994V2.34994C14.2915 2.34994 13.9612 2.41062 13.7282 2.5516C13.4831 2.69993 13.3584 2.92972 13.3584 3.21994H13.5084H13.6584C13.6584 3.03017 13.732 2.89995 13.8835 2.80828C14.0471 2.70927 14.3119 2.64994 14.6984 2.64994V2.49994ZM13.5084 3.21994H13.3584C13.3584 3.46769 13.4615 3.66895 13.6651 3.80475L13.7484 3.67994L13.8316 3.55513C13.7153 3.4776 13.6584 3.3722 13.6584 3.21994H13.5084ZM13.7484 3.67994L13.6651 3.80475C13.8429 3.92326 14.0662 4.01554 14.3302 4.085L14.3684 3.93994L14.4065 3.79488C14.1638 3.73101 13.9738 3.64995 13.8316 3.55513L13.7484 3.67994ZM14.3684 3.93994L14.3338 4.0859C14.5883 4.14617 14.856 4.20641 15.1369 4.26661L15.1684 4.11994L15.1998 3.97327C14.9207 3.91347 14.6551 3.85371 14.4029 3.79398L14.3684 3.93994ZM15.1684 4.11994L15.1409 4.26741C15.4188 4.31911 15.6795 4.39323 15.9233 4.48946L15.9784 4.34994L16.0334 4.21042C15.7706 4.10665 15.4912 4.02744 15.1958 3.97247L15.1684 4.11994ZM15.9784 4.34994L15.9233 4.48946C16.1564 4.58148 16.342 4.71138 16.4845 4.87756L16.5984 4.77994L16.7122 4.68232C16.5347 4.47517 16.307 4.3184 16.0334 4.21042L15.9784 4.34994ZM16.5984 4.77994L16.4862 4.8796C16.6152 5.02471 16.6884 5.23202 16.6884 5.51994H16.8384H16.9884C16.9884 5.1812 16.9015 4.89517 16.7105 4.68029L16.5984 4.77994ZM16.8384 5.51994H16.6884C16.6884 5.96157 16.5225 6.28713 16.1926 6.51685L16.2784 6.63994L16.3641 6.76303C16.7809 6.47276 16.9884 6.05165 16.9884 5.51994H16.8384ZM16.2784 6.63994L16.1931 6.51653C15.8595 6.74698 15.3994 6.86994 14.7984 6.86994V7.01994V7.16994C15.4373 7.16994 15.9638 7.03957 16.3636 6.76335L16.2784 6.63994ZM18.3426 6.93994H18.1926V7.08994H18.3426V6.93994ZM18.3426 2.59994H18.4926V2.44994H18.3426V2.59994ZM17.3226 2.59994H17.1726V2.74994H17.3226V2.59994ZM17.3226 1.93994V1.78994H17.1726V1.93994H17.3226ZM18.3426 1.93994V2.08994H18.4926V1.93994H18.3426ZM18.3426 0.149941V-5.87702e-05H18.1926V0.149941H18.3426ZM19.0926 0.149941H19.2426V-5.87702e-05H19.0926V0.149941ZM19.0926 1.93994H18.9426V2.08994H19.0926V1.93994ZM20.2426 1.93994H20.3926V1.78994H20.2426V1.93994ZM20.2426 2.59994V2.74994H20.3926V2.59994H20.2426ZM19.0926 2.59994V2.44994H18.9426V2.59994H19.0926ZM19.0926 6.93994V7.08994H19.2426V6.93994H19.0926ZM18.3426 6.93994H18.4926V2.59994H18.3426H18.1926V6.93994H18.3426ZM18.3426 2.59994V2.44994H17.3226V2.59994V2.74994H18.3426V2.59994ZM17.3226 2.59994H17.4726V1.93994H17.3226H17.1726V2.59994H17.3226ZM17.3226 1.93994V2.08994H18.3426V1.93994V1.78994H17.3226V1.93994ZM18.3426 1.93994H18.4926V0.149941H18.3426H18.1926V1.93994H18.3426ZM18.3426 0.149941V0.299941H19.0926V0.149941V-5.87702e-05H18.3426V0.149941ZM19.0926 0.149941H18.9426V1.93994H19.0926H19.2426V0.149941H19.0926ZM19.0926 1.93994V2.08994H20.2426V1.93994V1.78994H19.0926V1.93994ZM20.2426 1.93994H20.0926V2.59994H20.2426H20.3926V1.93994H20.2426ZM20.2426 2.59994V2.44994H19.0926V2.59994V2.74994H20.2426V2.59994ZM19.0926 2.59994H18.9426V6.93994H19.0926H19.2426V2.59994H19.0926ZM19.0926 6.93994V6.78994H18.3426V6.93994V7.08994H19.0926V6.93994ZM21.8166 6.67994L21.7371 6.80715L21.7388 6.80816L21.8166 6.67994ZM20.9566 3.13994L21.0899 3.20886L21.0903 3.20793L20.9566 3.13994ZM21.8166 2.20994L21.8945 2.33817L21.8961 2.33714L21.8166 2.20994ZM24.4566 2.20994L24.3761 2.33652L24.3788 2.33816L24.4566 2.20994ZM25.3166 3.13994L25.1829 3.20793L25.1834 3.20885L25.3166 3.13994ZM25.3166 5.73994L25.1829 5.67195V5.67195L25.3166 5.73994ZM24.4566 6.67994L24.5355 6.80753L24.5361 6.80714L24.4566 6.67994ZM24.0766 6.07994L23.9934 5.95512L23.9919 5.95615L24.0766 6.07994ZM24.6666 5.38994L24.8026 5.4532L24.8032 5.45201L24.6666 5.38994ZM24.6666 3.48994L24.8026 3.42668V3.42668L24.6666 3.48994ZM24.0766 2.79994L23.9919 2.92375L23.9934 2.92475L24.0766 2.79994ZM22.1966 2.79994L22.1134 2.67513V2.67513L22.1966 2.79994ZM21.6066 3.48994L21.4706 3.42668V3.42668L21.6066 3.48994ZM21.6066 5.38994L21.4701 5.45201L21.4706 5.4532L21.6066 5.38994ZM23.1366 7.01994V6.86994C22.653 6.86994 22.2408 6.76199 21.8945 6.55172L21.8166 6.67994L21.7388 6.80816C22.1391 7.05123 22.607 7.16994 23.1366 7.16994V7.01994ZM21.8166 6.67994L21.8961 6.55274C21.546 6.33389 21.278 6.04105 21.0903 5.67195L20.9566 5.73994L20.8229 5.80793C21.0353 6.2255 21.3406 6.55933 21.7371 6.80714L21.8166 6.67994ZM20.9566 5.73994L21.0903 5.67195C20.9018 5.3012 20.8066 4.8914 20.8066 4.43994H20.6566H20.5066C20.5066 4.93515 20.6114 5.39202 20.8229 5.80793L20.9566 5.73994ZM20.6566 4.43994H20.8066C20.8066 3.98142 20.902 3.5721 21.0899 3.20885L20.9566 3.13994L20.8234 3.07103C20.6113 3.48111 20.5066 3.93846 20.5066 4.43994H20.6566ZM20.9566 3.13994L21.0903 3.20793C21.2778 2.83921 21.5453 2.55018 21.8945 2.33816L21.8166 2.20994L21.7388 2.08172C21.3413 2.32303 21.0354 2.65401 20.8229 3.07195L20.9566 3.13994ZM21.8166 2.20994L21.8961 2.33714C22.2422 2.12085 22.6538 2.00994 23.1366 2.00994V1.85994V1.70994C22.6062 1.70994 22.1377 1.83237 21.7371 2.08274L21.8166 2.20994ZM23.1366 1.85994V2.00994C23.6267 2.00994 24.0376 2.12106 24.3761 2.33649L24.4566 2.20994L24.5372 2.08339C24.1424 1.83215 23.6733 1.70994 23.1366 1.70994V1.85994ZM24.4566 2.20994L24.3788 2.33816C24.728 2.55018 24.9954 2.83921 25.1829 3.20793L25.3166 3.13994L25.4503 3.07195C25.2378 2.65401 24.9319 2.32304 24.5345 2.08172L24.4566 2.20994ZM25.3166 3.13994L25.1834 3.20885C25.3713 3.5721 25.4666 3.98142 25.4666 4.43994H25.6166H25.7666C25.7666 3.93846 25.662 3.48111 25.4499 3.07103L25.3166 3.13994ZM25.6166 4.43994H25.4666C25.4666 4.8914 25.3714 5.3012 25.1829 5.67195L25.3166 5.73994L25.4503 5.80793C25.6618 5.39202 25.7666 4.93515 25.7666 4.43994H25.6166ZM25.3166 5.73994L25.1829 5.67195C24.9953 6.04105 24.7273 6.33389 24.3771 6.55274L24.4566 6.67994L24.5361 6.80714C24.9326 6.55933 25.238 6.2255 25.4503 5.80793L25.3166 5.73994ZM24.4566 6.67994L24.3778 6.55235C24.039 6.76178 23.6275 6.86994 23.1366 6.86994V7.01994V7.16994C23.6725 7.16994 24.141 7.05144 24.5355 6.80753L24.4566 6.67994ZM23.1366 6.33994V6.48994C23.5336 6.48994 23.8781 6.39753 24.1613 6.20374L24.0766 6.07994L23.9919 5.95615C23.7685 6.10902 23.4864 6.18994 23.1366 6.18994V6.33994ZM24.0766 6.07994L24.1598 6.20475C24.443 6.01595 24.6578 5.76453 24.8026 5.4532L24.6666 5.38994L24.5306 5.32668C24.4088 5.58868 24.2302 5.79727 23.9934 5.95513L24.0766 6.07994ZM24.6666 5.38994L24.8032 5.45201C24.9459 5.13812 25.0166 4.80015 25.0166 4.43994H24.8666H24.7166C24.7166 4.75974 24.6541 5.0551 24.5301 5.32787L24.6666 5.38994ZM24.8666 4.43994H25.0166C25.0166 4.07355 24.9461 3.73501 24.8026 3.42668L24.6666 3.48994L24.5306 3.5532C24.6539 3.8182 24.7166 4.113 24.7166 4.43994H24.8666ZM24.6666 3.48994L24.8026 3.42668C24.6578 3.11535 24.443 2.86393 24.1598 2.67513L24.0766 2.79994L23.9934 2.92475C24.2302 3.08261 24.4088 3.2912 24.5306 3.5532L24.6666 3.48994ZM24.0766 2.79994L24.1613 2.67615C23.8781 2.48235 23.5336 2.38994 23.1366 2.38994V2.53994V2.68994C23.4864 2.68994 23.7685 2.77087 23.9919 2.92374L24.0766 2.79994ZM23.1366 2.53994V2.38994C22.7456 2.38994 22.4021 2.48269 22.1134 2.67513L22.1966 2.79994L22.2798 2.92475C22.5112 2.77053 22.7943 2.68994 23.1366 2.68994V2.53994ZM22.1966 2.79994L22.1134 2.67513C21.8302 2.86393 21.6154 3.11535 21.4706 3.42668L21.6066 3.48994L21.7426 3.5532C21.8645 3.2912 22.043 3.08261 22.2798 2.92475L22.1966 2.79994ZM21.6066 3.48994L21.4706 3.42668C21.3272 3.73501 21.2566 4.07355 21.2566 4.43994H21.4066H21.5566C21.5566 4.113 21.6194 3.8182 21.7426 3.5532L21.6066 3.48994ZM21.4066 4.43994H21.2566C21.2566 4.80015 21.3274 5.13812 21.4701 5.45201L21.6066 5.38994L21.7432 5.32787C21.6192 5.0551 21.5566 4.75974 21.5566 4.43994H21.4066ZM21.6066 5.38994L21.4706 5.4532C21.6154 5.76453 21.8302 6.01595 22.1134 6.20475L22.1966 6.07994L22.2798 5.95513C22.043 5.79727 21.8645 5.58868 21.7426 5.32668L21.6066 5.38994ZM22.1966 6.07994L22.1134 6.20475C22.4021 6.3972 22.7456 6.48994 23.1366 6.48994V6.33994V6.18994C22.7943 6.18994 22.5112 6.10935 22.2798 5.95513L22.1966 6.07994ZM26.6112 6.93994H26.4612V7.08994H26.6112V6.93994ZM26.6112 1.93994V1.78994H26.4612V1.93994H26.6112ZM27.3612 1.93994H27.5112V1.78994H27.3612V1.93994ZM27.3612 2.69994H27.2112V3.2689L27.4917 2.77389L27.3612 2.69994ZM27.9012 2.12994L27.8127 2.00877V2.00877L27.9012 2.12994ZM29.8012 2.12994L29.72 2.25617L29.7236 2.2583L29.8012 2.12994ZM30.4712 2.86994L30.337 2.93702L30.4605 3.18397L30.6005 2.94599L30.4712 2.86994ZM30.7812 2.45994L30.6706 2.35856L30.6683 2.36117L30.7812 2.45994ZM31.3512 2.03994L31.4198 2.17333V2.17333L31.3512 2.03994ZM33.0912 2.10994L33.1679 1.98105V1.98105L33.0912 2.10994ZM33.7712 2.82994L33.6399 2.90257L33.6418 2.90587L33.7712 2.82994ZM34.0412 6.93994V7.08994H34.1912V6.93994H34.0412ZM33.2912 6.93994H33.1412V7.08994H33.2912V6.93994ZM32.9312 2.92994L32.8195 3.03016L32.8223 3.0331L32.9312 2.92994ZM31.1012 2.90994L30.9993 2.79983V2.79983L31.1012 2.90994ZM30.7012 6.93994V7.08994H30.8512V6.93994H30.7012ZM29.9512 6.93994H29.8012V7.08994H29.9512V6.93994ZM29.5912 2.92994L29.4795 3.03016L29.4823 3.0331L29.5912 2.92994ZM27.3612 6.93994V7.08994H27.5112V6.93994H27.3612ZM26.6112 6.93994H26.7612V1.93994H26.6112H26.4612V6.93994H26.6112ZM26.6112 1.93994V2.08994H27.3612V1.93994V1.78994H26.6112V1.93994ZM27.3612 1.93994H27.2112V2.69994H27.3612H27.5112V1.93994H27.3612ZM27.3612 2.69994L27.4917 2.77389C27.5916 2.59747 27.7548 2.42247 27.9896 2.25111L27.9012 2.12994L27.8127 2.00877C27.5542 2.19742 27.3574 2.40241 27.2307 2.62599L27.3612 2.69994ZM27.9012 2.12994L27.9896 2.25111C28.2033 2.09518 28.4958 2.00994 28.8812 2.00994V1.85994V1.70994C28.4532 1.70994 28.0924 1.8047 27.8127 2.00877L27.9012 2.12994ZM28.8812 1.85994V2.00994C29.1858 2.00994 29.4643 2.09169 29.7201 2.25612L29.8012 2.12994L29.8823 2.00376C29.578 1.80819 29.2432 1.70994 28.8812 1.70994V1.85994ZM29.8012 2.12994L29.7236 2.2583C29.9843 2.41596 30.1888 2.64058 30.337 2.93702L30.4712 2.86994L30.6053 2.80286C30.4336 2.4593 30.1914 2.19059 29.8788 2.00158L29.8012 2.12994ZM30.4712 2.86994L30.6005 2.94599C30.6604 2.84411 30.7569 2.71541 30.8941 2.55872L30.7812 2.45994L30.6683 2.36117C30.5254 2.52447 30.4153 2.66911 30.3419 2.79389L30.4712 2.86994ZM30.7812 2.45994L30.8917 2.5613C31.0242 2.41679 31.199 2.28687 31.4198 2.17333L31.3512 2.03994L31.2826 1.90655C31.0367 2.03302 30.8315 2.18309 30.6706 2.35858L30.7812 2.45994ZM31.3512 2.03994L31.4198 2.17333C31.6273 2.0666 31.8826 2.00994 32.1912 2.00994V1.85994V1.70994C31.8464 1.70994 31.5417 1.77328 31.2826 1.90655L31.3512 2.03994ZM32.1912 1.85994V2.00994C32.4836 2.00994 32.7572 2.08572 33.0144 2.23884L33.0912 2.10994L33.1679 1.98105C32.8651 1.80083 32.5387 1.70994 32.1912 1.70994V1.85994ZM33.0912 2.10994L33.0144 2.23884C33.2694 2.39058 33.4781 2.61011 33.6399 2.90255L33.7712 2.82994L33.9024 2.75733C33.7175 2.4231 33.4729 2.16263 33.1679 1.98105L33.0912 2.10994ZM33.7712 2.82994L33.6418 2.90587C33.806 3.18565 33.8912 3.52177 33.8912 3.91994H34.0412H34.1912C34.1912 3.47812 34.0963 3.08757 33.9005 2.75401L33.7712 2.82994ZM34.0412 3.91994H33.8912V6.93994H34.0412H34.1912V3.91994H34.0412ZM34.0412 6.93994V6.78994H33.2912V6.93994V7.08994H34.0412V6.93994ZM33.2912 6.93994H33.4412V3.93994H33.2912H33.1412V6.93994H33.2912ZM33.2912 3.93994H33.4412C33.4412 3.48985 33.3116 3.11346 33.0401 2.82678L32.9312 2.92994L32.8223 3.0331C33.0307 3.25309 33.1412 3.55004 33.1412 3.93994H33.2912ZM32.9312 2.92994L33.0428 2.82975C32.7807 2.53764 32.4465 2.38994 32.0512 2.38994V2.53994V2.68994C32.3625 2.68994 32.615 2.80224 32.8195 3.03013L32.9312 2.92994ZM32.0512 2.53994V2.38994C31.6471 2.38994 31.294 2.52725 30.9993 2.79983L31.1012 2.90994L31.203 3.02006C31.4417 2.7993 31.7219 2.68994 32.0512 2.68994V2.53994ZM31.1012 2.90994L30.9993 2.79983C30.6951 3.08121 30.5512 3.47179 30.5512 3.94994H30.7012H30.8512C30.8512 3.53476 30.9739 3.23201 31.203 3.02006L31.1012 2.90994ZM30.7012 3.94994H30.5512V6.93994H30.7012H30.8512V3.94994H30.7012ZM30.7012 6.93994V6.78994H29.9512V6.93994V7.08994H30.7012V6.93994ZM29.9512 6.93994H30.1012V3.93994H29.9512H29.8012V6.93994H29.9512ZM29.9512 3.93994H30.1012C30.1012 3.48985 29.9716 3.11346 29.7001 2.82678L29.5912 2.92994L29.4823 3.0331C29.6907 3.25309 29.8012 3.55004 29.8012 3.93994H29.9512ZM29.5912 2.92994L29.7028 2.82975C29.4406 2.53764 29.1065 2.38994 28.7112 2.38994V2.53994V2.68994C29.0225 2.68994 29.275 2.80224 29.4795 3.03013L29.5912 2.92994ZM28.7112 2.53994V2.38994C28.3071 2.38994 27.954 2.52725 27.6593 2.79983L27.7612 2.90994L27.863 3.02006C28.1017 2.7993 28.3819 2.68994 28.7112 2.68994V2.53994ZM27.7612 2.90994L27.6593 2.79983C27.3551 3.08121 27.2112 3.47179 27.2112 3.94994H27.3612H27.5112C27.5112 3.53476 27.6339 3.23201 27.863 3.02006L27.7612 2.90994ZM27.3612 3.94994H27.2112V6.93994H27.3612H27.5112V3.94994H27.3612ZM27.3612 6.93994V6.78994H26.6112V6.93994V7.08994H27.3612V6.93994ZM36.1828 6.67994L36.1043 6.80778L36.106 6.80876L36.1828 6.67994ZM35.2928 5.73994L35.16 5.80972L35.161 5.81146L35.2928 5.73994ZM35.2828 3.13994L35.416 3.20886L35.4165 3.20793L35.2828 3.13994ZM36.1428 2.20994L36.2207 2.33817L36.2223 2.33714L36.1428 2.20994ZM38.7828 2.20994L38.7023 2.33652L38.705 2.33816L38.7828 2.20994ZM39.6428 3.13994L39.5091 3.20793L39.5096 3.20885L39.6428 3.13994ZM39.9428 4.73994V4.88994H40.0928V4.73994H39.9428ZM35.7528 4.73994V4.58994H35.581L35.6042 4.76021L35.7528 4.73994ZM36.0328 5.54994L35.9038 5.62664L35.9064 5.6307L36.0328 5.54994ZM36.6428 6.12994L36.5676 6.25978L36.5703 6.26123L36.6428 6.12994ZM38.4128 6.10994L38.4936 6.23637L38.496 6.23475L38.4128 6.10994ZM38.9728 5.49994V5.34994H38.8834L38.8409 5.42861L38.9728 5.49994ZM39.7928 5.49994L39.9326 5.55421L40.0119 5.34994H39.7928V5.49994ZM38.9628 6.59994L39.0528 6.71994L39.0531 6.71969L38.9628 6.59994ZM35.7628 4.03994L35.615 4.01453L35.5848 4.18994H35.7628V4.03994ZM39.1628 4.03994V4.18994H39.3381L39.311 4.01678L39.1628 4.03994ZM38.6228 2.96994L38.7276 2.86266V2.86266L38.6228 2.96994ZM36.3028 2.96994L36.198 2.86266L36.1967 2.86388L36.3028 2.96994ZM37.5128 7.01994V6.86994C37.0292 6.86994 36.6132 6.76201 36.2596 6.55112L36.1828 6.67994L36.106 6.80876C36.5124 7.0512 36.9831 7.16994 37.5128 7.16994V7.01994ZM36.1828 6.67994L36.2613 6.55212C35.9038 6.3326 35.6255 6.03872 35.4247 5.66843L35.2928 5.73994L35.161 5.81146C35.3868 6.22783 35.7018 6.56062 36.1043 6.80777L36.1828 6.67994ZM35.2928 5.73994L35.4256 5.67017C35.231 5.29976 35.1328 4.8906 35.1328 4.43994H34.9828H34.8328C34.8328 4.93595 34.9413 5.39346 35.16 5.80971L35.2928 5.73994ZM34.9828 4.43994H35.1328C35.1328 3.98142 35.2282 3.5721 35.416 3.20885L35.2828 3.13994L35.1496 3.07103C34.9375 3.48111 34.8328 3.93846 34.8328 4.43994H34.9828ZM35.2828 3.13994L35.4165 3.20793C35.604 2.83921 35.8714 2.55018 36.2207 2.33816L36.1428 2.20994L36.065 2.08172C35.6675 2.32303 35.3616 2.65401 35.1491 3.07195L35.2828 3.13994ZM36.1428 2.20994L36.2223 2.33714C36.5684 2.12085 36.9799 2.00994 37.4628 2.00994V1.85994V1.70994C36.9324 1.70994 36.4639 1.83237 36.0633 2.08274L36.1428 2.20994ZM37.4628 1.85994V2.00994C37.9529 2.00994 38.3638 2.12106 38.7023 2.33649L38.7828 2.20994L38.8633 2.08339C38.4685 1.83215 37.9994 1.70994 37.4628 1.70994V1.85994ZM38.7828 2.20994L38.705 2.33816C39.0542 2.55018 39.3216 2.83921 39.5091 3.20793L39.6428 3.13994L39.7765 3.07195C39.564 2.65401 39.2581 2.32304 38.8607 2.08172L38.7828 2.20994ZM39.6428 3.13994L39.5096 3.20885C39.6975 3.5721 39.7928 3.98142 39.7928 4.43994H39.9428H40.0928C40.0928 3.93846 39.9882 3.48111 39.776 3.07103L39.6428 3.13994ZM39.9428 4.43994H39.7928V4.73994H39.9428H40.0928V4.43994H39.9428ZM39.9428 4.73994V4.58994H35.7528V4.73994V4.88994H39.9428V4.73994ZM35.7528 4.73994L35.6042 4.76021C35.6468 5.07283 35.7466 5.3621 35.9039 5.6266L36.0328 5.54994L36.1617 5.47328C36.0257 5.24445 35.9388 4.99372 35.9014 4.71967L35.7528 4.73994ZM36.0328 5.54994L35.9064 5.6307C36.073 5.89149 36.2942 6.10142 36.5676 6.25976L36.6428 6.12994L36.718 6.00013C36.4848 5.86513 36.2993 5.68839 36.1592 5.46918L36.0328 5.54994ZM36.6428 6.12994L36.5703 6.26123C36.849 6.41525 37.168 6.48994 37.5228 6.48994V6.33994V6.18994C37.211 6.18994 36.9433 6.12463 36.7154 5.99866L36.6428 6.12994ZM37.5228 6.33994V6.48994C37.8979 6.48994 38.2242 6.40842 38.4936 6.23635L38.4128 6.10994L38.3321 5.98354C38.1214 6.11813 37.8544 6.18994 37.5228 6.18994V6.33994ZM38.4128 6.10994L38.496 6.23475C38.7558 6.06157 38.9594 5.84011 39.1048 5.57127L38.9728 5.49994L38.8409 5.42861C38.7195 5.65311 38.5498 5.83831 38.3296 5.98513L38.4128 6.10994ZM38.9728 5.49994V5.64994H39.7928V5.49994V5.34994H38.9728V5.49994ZM39.7928 5.49994L39.653 5.44567C39.4897 5.86652 39.23 6.21044 38.8725 6.48019L38.9628 6.59994L39.0531 6.71969C39.4556 6.41611 39.7493 6.0267 39.9326 5.55421L39.7928 5.49994ZM38.9628 6.59994L38.8728 6.47994C38.5317 6.73573 38.0826 6.86994 37.5128 6.86994V7.01994V7.16994C38.1297 7.16994 38.6472 7.02415 39.0528 6.71994L38.9628 6.59994ZM35.7628 4.03994V4.18994H39.1628V4.03994V3.88994H35.7628V4.03994ZM39.1628 4.03994L39.311 4.01678C39.2396 3.55994 39.0454 3.1732 38.7276 2.86266L38.6228 2.96994L38.518 3.07722C38.7869 3.34001 38.9527 3.66661 39.0146 4.0631L39.1628 4.03994ZM38.6228 2.96994L38.7276 2.86266C38.4015 2.54397 37.9748 2.38994 37.4628 2.38994V2.53994V2.68994C37.9108 2.68994 38.2574 2.82258 38.518 3.07722L38.6228 2.96994ZM37.4628 2.53994V2.38994C36.9508 2.38994 36.5241 2.54397 36.198 2.86266L36.3028 2.96994L36.4076 3.07722C36.6682 2.82258 37.0148 2.68994 37.4628 2.68994V2.53994ZM36.3028 2.96994L36.1967 2.86388C35.8866 3.17399 35.6932 3.5595 35.615 4.01453L35.7628 4.03994L35.9106 4.06535C35.9791 3.66705 36.1457 3.33923 36.4089 3.07601L36.3028 2.96994ZM40.8592 6.93994H40.7092V7.08994H40.8592V6.93994ZM40.8592 1.93994V1.78994H40.7092V1.93994H40.8592ZM41.6092 1.93994H41.7592V1.78994H41.6092V1.93994ZM41.6092 3.16994H41.4592L41.7526 3.21405L41.6092 3.16994ZM41.7592 2.82994L41.6275 2.7581L41.6263 2.76034L41.7592 2.82994ZM42.0992 2.38994L42.2053 2.49601V2.49601L42.0992 2.38994ZM42.6492 2.01994L42.7113 2.15651L42.7131 2.15566L42.6492 2.01994ZM43.4992 1.85994H43.6492V1.70994H43.4992V1.85994ZM43.4992 2.60994V2.75994H43.6492V2.60994H43.4992ZM42.4392 2.91994L42.5292 3.03994L42.5297 3.03959L42.4392 2.91994ZM41.8192 3.70994L41.6824 3.6485L41.6818 3.64982L41.8192 3.70994ZM41.6092 6.93994V7.08994H41.7592V6.93994H41.6092ZM40.8592 6.93994H41.0092V1.93994H40.8592H40.7092V6.93994H40.8592ZM40.8592 1.93994V2.08994H41.6092V1.93994V1.78994H40.8592V1.93994ZM41.6092 1.93994H41.4592V3.16994H41.6092H41.7592V1.93994H41.6092ZM41.6092 3.16994L41.7526 3.21405C41.7753 3.14033 41.8204 3.03643 41.8921 2.89954L41.7592 2.82994L41.6263 2.76034C41.5514 2.90345 41.4965 3.02622 41.4658 3.12583L41.6092 3.16994ZM41.7592 2.82994L41.8909 2.90177C41.9626 2.77028 42.0664 2.63488 42.2053 2.49601L42.0992 2.38994L41.9931 2.28388C41.8387 2.43834 41.7158 2.59627 41.6275 2.75811L41.7592 2.82994ZM42.0992 2.38994L42.2053 2.49601C42.3373 2.36397 42.505 2.25026 42.7113 2.1565L42.6492 2.01994L42.5871 1.88339C42.3534 1.98962 42.1544 2.12258 41.9931 2.28388L42.0992 2.38994ZM42.6492 2.01994L42.7131 2.15566C42.9158 2.06027 43.1598 2.00994 43.4492 2.00994V1.85994V1.70994C43.1253 1.70994 42.836 1.76628 42.5853 1.88422L42.6492 2.01994ZM43.4492 1.85994V2.00994H43.4992V1.85994V1.70994H43.4492V1.85994ZM43.4992 1.85994H43.3492V2.60994H43.4992H43.6492V1.85994H43.4992ZM43.4992 2.60994V2.45994H43.4092V2.60994V2.75994H43.4992V2.60994ZM43.4092 2.60994V2.45994C43.0063 2.45994 42.6505 2.57214 42.3487 2.80029L42.4392 2.91994L42.5297 3.03959C42.7746 2.85441 43.0654 2.75994 43.4092 2.75994V2.60994ZM42.4392 2.91994L42.3492 2.79994C42.0607 3.01631 41.8386 3.30044 41.6824 3.6485L41.8192 3.70994L41.9561 3.77138C42.0931 3.46611 42.2844 3.22358 42.5292 3.03994L42.4392 2.91994ZM41.8192 3.70994L41.6818 3.64982C41.5331 3.98972 41.4592 4.35363 41.4592 4.73994H41.6092H41.7592C41.7592 4.39292 41.8253 4.07017 41.9566 3.77006L41.8192 3.70994ZM41.6092 4.73994H41.4592V6.93994H41.6092H41.7592V4.73994H41.6092ZM41.6092 6.93994V6.78994H40.8592V6.93994V7.08994H41.6092V6.93994Z" fill="black"/>
</svg>
